<?xml version="1.0" encoding="UTF-8" standalone="no"?>
<!-- Created with Inkscape (http://www.inkscape.org/) -->

<svg
   xmlns:dc="http://purl.org/dc/elements/1.1/"
   xmlns:cc="http://creativecommons.org/ns#"
   xmlns:rdf="http://www.w3.org/1999/02/22-rdf-syntax-ns#"
   xmlns:svg="http://www.w3.org/2000/svg"
   xmlns="http://www.w3.org/2000/svg"
   xmlns:sodipodi="http://sodipodi.sourceforge.net/DTD/sodipodi-0.dtd"
   xmlns:inkscape="http://www.inkscape.org/namespaces/inkscape"
   width="85.05529mm"
   height="44.728268mm"
   viewBox="0 0 301.37701 158.48599"
   id="svg2"
   version="1.1"
   inkscape:version="0.91 r13725"
   sodipodi:docname="logo.svg"
   inkscape:export-filename="/Users/moutault/GitHub/HiBlocks-MD/logo/logo-mini.png"
   inkscape:export-xdpi="90"
   inkscape:export-ydpi="90">
  <defs
     id="defs4" />
  <sodipodi:namedview
     id="base"
     pagecolor="#ffffff"
     bordercolor="#666666"
     borderopacity="1.0"
     inkscape:pageopacity="0.0"
     inkscape:pageshadow="2"
     inkscape:zoom="2.8284271"
     inkscape:cx="139.78732"
     inkscape:cy="281.15581"
     inkscape:document-units="px"
     inkscape:current-layer="layer1"
     showgrid="false"
     inkscape:snap-text-baseline="true"
     inkscape:window-width="1230"
     inkscape:window-height="755"
     inkscape:window-x="50"
     inkscape:window-y="1"
     inkscape:window-maximized="1"
     fit-margin-top="0"
     fit-margin-left="0"
     fit-margin-right="0"
     fit-margin-bottom="0" />
  <metadata
     id="metadata7">
    <rdf:RDF>
      <cc:Work
         rdf:about="">
        <dc:format>image/svg+xml</dc:format>
        <dc:type
           rdf:resource="http://purl.org/dc/dcmitype/StillImage" />
        <dc:title></dc:title>
      </cc:Work>
    </rdf:RDF>
  </metadata>
  <g
     inkscape:label="Calque 1"
     inkscape:groupmode="layer"
     id="layer1"
     transform="translate(819.30884,-187.71701)">
    <g
       id="g8225"
       transform="translate(-426.38349,-57.242981)">
      <rect
         style="opacity:1;fill:#6f359e;fill-opacity:1;stroke:none;stroke-width:10;stroke-linejoin:round;stroke-miterlimit:4;stroke-dasharray:none;stroke-dashoffset:0;stroke-opacity:1"
         id="rect8103"
         width="481.55301"
         height="89.242996"
         x="98.571426"
         y="503.44598" />
      <text
         xml:space="preserve"
         style="font-style:normal;font-variant:normal;font-weight:500;font-stretch:normal;font-size:50px;line-height:125%;font-family:'Lucida Grande';-inkscape-font-specification:'Lucida Grande, Medium';text-align:start;letter-spacing:0px;word-spacing:0px;writing-mode:lr-tb;text-anchor:start;fill:#ffffff;fill-opacity:1;stroke:none;stroke-width:1px;stroke-linecap:butt;stroke-linejoin:miter;stroke-opacity:1"
         x="109.90443"
         y="563.60693"
         id="text8105"
         sodipodi:linespacing="125%"><tspan
           sodipodi:role="line"
           id="tspan8107"
           x="109.90443"
           y="563.60693"><tspan
             style="font-style:normal;font-variant:normal;font-weight:normal;font-stretch:normal;font-family:Monaco;-inkscape-font-specification:Monaco;fill:#ffffff;fill-opacity:1"
             id="tspan8109">[HiBlocks](</tspan><tspan
             style="font-style:normal;font-variant:normal;font-weight:500;font-stretch:normal;font-size:50px;line-height:125%;font-family:'Snell Roundhand';-inkscape-font-specification:'Snell Roundhand, Medium';text-align:start;writing-mode:lr-tb;text-anchor:start;fill:#ffffff;fill-opacity:1"
             id="tspan8111">MD</tspan><tspan
             style="font-style:normal;font-variant:normal;font-weight:normal;font-stretch:normal;font-family:Monaco;-inkscape-font-specification:Monaco;fill:#ffffff;fill-opacity:1"
             id="tspan8113">)</tspan></tspan></text>
    </g>
    <text
       xml:space="preserve"
       style="font-style:normal;font-variant:normal;font-weight:500;font-stretch:normal;font-size:50px;line-height:125%;font-family:'Lucida Grande';-inkscape-font-specification:'Lucida Grande, Medium';text-align:start;letter-spacing:0px;word-spacing:0px;writing-mode:lr-tb;text-anchor:start;fill:#6f359e;fill-opacity:1;stroke:none;stroke-width:1px;stroke-linecap:butt;stroke-linejoin:miter;stroke-opacity:1"
       x="245.07396"
       y="506.36404"
       id="text8117"
       sodipodi:linespacing="125%"><tspan
         sodipodi:role="line"
         x="245.07396"
         y="506.36404"
         id="tspan8243"><tspan
           style="font-style:normal;font-variant:normal;font-weight:normal;font-stretch:normal;font-family:Monaco;-inkscape-font-specification:Monaco;fill:#6f359e;fill-opacity:1"
           id="tspan8245">[HiBlocks](</tspan><tspan
           style="font-style:normal;font-variant:normal;font-weight:500;font-stretch:normal;font-size:50px;line-height:125%;font-family:'Snell Roundhand';-inkscape-font-specification:'Snell Roundhand, Medium';text-align:start;writing-mode:lr-tb;text-anchor:start;fill:#6f359e;fill-opacity:1"
           id="tspan8123">MD</tspan><tspan
           style="font-style:normal;font-variant:normal;font-weight:normal;font-stretch:normal;font-family:Monaco;-inkscape-font-specification:Monaco;fill:#6f359e;fill-opacity:1"
           id="tspan8125">)</tspan></tspan></text>
    <path
       style="opacity:1;fill:#6f359e;fill-opacity:1;stroke:none;stroke-width:10;stroke-linejoin:round;stroke-miterlimit:4;stroke-dasharray:none;stroke-dashoffset:0;stroke-opacity:1"
       d="m 0,260 0,158.48633 481.55273,0 0,-158.48633 z m 20,20 19.701172,0 0,3.80859 -15.160156,0 0,41.65039 15.160156,0 0,3.78516 -19.701172,0 z m 65.087891,0 c 0.634766,0 1.302086,0.25325 2.001953,0.75781 0.699873,0.50456 1.048828,1.26953 1.048828,2.29492 0,1.00912 -0.348955,1.76498 -1.048828,2.26954 -0.699867,0.50455 -1.367187,0.75585 -2.001953,0.75585 -0.618487,0 -1.278643,-0.2513 -1.978516,-0.75585 -0.699867,-0.50456 -1.048828,-1.26042 -1.048828,-2.26954 0,-1.02539 0.348961,-1.79036 1.048828,-2.29492 C 83.809248,280.25325 84.469404,280 85.087891,280 Z m 198.095699,0 19.70118,0 0,49.24414 -19.70118,0 0,-3.78516 15.16016,0 0,-41.65039 -15.16016,0 z m 54.61329,0 0,3.80859 c -3.4017,0.30924 -6.33139,1.45768 -8.78907,3.44336 -2.4414,1.9694 -4.36198,4.48308 -5.76172,7.54297 -1.39974,3.0599 -2.09961,6.3405 -2.09961,9.83985 0,3.49935 0.69987,6.77799 2.09961,9.83789 1.39974,3.05989 3.32032,5.57356 5.76172,7.54296 2.45768,1.96941 5.38737,3.11784 8.78907,3.44336 l 0,3.78516 c -4.50846,-0.27669 -8.30794,-1.55534 -11.4004,-3.83398 -3.09244,-2.26238 -5.5664,-5.32227 -7.42187,-9.17969 -1.83919,-3.85742 -2.75977,-7.722 -2.75977,-11.5957 0,-3.8737 0.92058,-7.74023 2.75977,-11.59766 1.85547,-3.85742 4.32943,-6.91731 7.42187,-9.17969 3.09246,-2.27864 6.89194,-3.56445 11.4004,-3.85742 z m 102.17382,0 c 4.50847,0.29297 8.30795,1.57878 11.40039,3.85742 3.09245,2.26238 5.55925,5.32227 7.39844,9.17969 1.85547,3.85743 2.7832,7.72396 2.7832,11.59766 0,3.8737 -0.92773,7.73828 -2.7832,11.5957 -1.83919,3.85742 -4.30599,6.91731 -7.39844,9.17969 -3.09244,2.27864 -6.89192,3.55729 -11.40039,3.83398 l 0,-3.78516 c 3.4017,-0.32552 6.32227,-1.47395 8.76368,-3.44336 2.45767,-1.9694 4.38736,-4.48307 5.7871,-7.54296 1.41602,-3.0599 2.12305,-6.33854 2.12305,-9.83789 0,-3.49935 -0.70703,-6.77995 -2.12305,-9.83985 -1.39974,-3.05989 -3.32943,-5.57357 -5.7871,-7.54297 -2.33924,-1.90257 -5.12293,-3.02905 -8.34376,-3.39257 -1.33838,0.31486 -2.63495,0.77744 -3.88476,1.40234 -1.5,0.76667 -2.86628,1.73372 -4.09961,2.90039 0.76667,0.73333 1.41589,1.56667 1.94922,2.5 0.53333,0.93333 0.96745,1.91588 1.30078,2.94922 0.33333,1 0.56589,2.03294 0.69922,3.09961 0.16667,1.06666 0.25,2.09961 0.25,3.09961 0,3 -0.64922,5.80039 -1.94922,8.40039 -1.3,2.56666 -3.01706,4.80117 -5.15039,6.70117 -2.1,1.86667 -4.48372,3.34922 -7.15039,4.44922 -2.66667,1.06666 -5.36628,1.59961 -8.09961,1.59961 -1.03333,0 -1.95,-0.0329 -2.75,-0.0996 -0.8,-0.0333 -1.53255,-0.0992 -2.19922,-0.19922 -0.63333,-0.0667 -1.23411,-0.16745 -1.80078,-0.30078 -0.53333,-0.1 -1.08372,-0.21628 -1.65039,-0.34961 -0.46667,0.0667 -0.91628,0.13255 -1.34961,0.19922 -0.4,0.1 -0.81667,0.18333 -1.25,0.25 -0.4,0.0667 -0.86706,0.11705 -1.40039,0.15039 -0.5,0.0333 -1.08333,0.0508 -1.75,0.0508 -0.8,0 -1.41628,-0.0833 -1.84961,-0.25 -0.43333,-0.13333 -0.65039,-0.40078 -0.65039,-0.80078 0,-0.4 0.16667,-0.66745 0.5,-0.80078 0.36667,-0.16667 0.83372,-0.25 1.40039,-0.25 0.4,0 0.78372,0.0349 1.15039,0.10156 0.4,0.0333 0.83411,0.0992 1.30078,0.19922 0.5,0.1 1.04844,0.21627 1.64844,0.34961 0.6,0.1 1.3345,0.21627 2.20117,0.34961 1.7,-0.43334 3.25039,-1.31511 4.65039,-2.64844 1.43333,-1.33333 2.78216,-2.91667 4.04883,-4.75 1.3,-1.83333 2.56745,-3.85078 3.80078,-6.05078 1.23333,-2.2 2.49883,-4.38412 3.79883,-6.55078 1.33333,-2.2 2.7345,-4.29883 4.20117,-6.29883 1.5,-2 3.13372,-3.73451 4.90039,-5.20117 -1.4,-1.16667 -2.96784,-1.98256 -4.70117,-2.44922 -1.7,-0.5 -3.26589,-0.75 -4.69922,-0.75 -2.7,0 -5.33372,0.46706 -7.90039,1.40039 -2.53333,0.93333 -4.80078,2.23372 -6.80078,3.90039 -1.96667,1.66667 -3.55,3.63177 -4.75,5.89844 -1.2,2.26666 -1.79883,4.73372 -1.79883,7.40039 0,1.06666 0.0988,2.08411 0.29883,3.05078 0.2,0.93333 0.55078,1.76667 1.05078,2.5 0.5,0.73333 1.14922,1.31667 1.94922,1.75 0.8,0.4 1.8,0.59961 3,0.59961 1.5,0 2.86823,-0.35078 4.10156,-1.05078 1.26667,-0.73334 2.33255,-1.69844 3.19922,-2.89844 0.9,-1.23333 1.59961,-2.65 2.09961,-4.25 0.5,-1.63333 0.75,-3.3349 0.75,-5.10156 l 0,-1.69922 0.59961,0 0,1.44922 c 0,2.06666 -0.28294,3.98333 -0.84961,5.75 -0.56667,1.73333 -1.36706,3.25078 -2.40039,4.55078 -1.03333,1.26666 -2.24844,2.26666 -3.64844,3 -1.4,0.7 -2.93489,1.05078 -4.60156,1.05078 -1.26667,0 -2.38294,-0.23451 -3.34961,-0.70117 -0.93333,-0.5 -1.71628,-1.14922 -2.34961,-1.94922 -0.6,-0.8 -1.06706,-1.73412 -1.40039,-2.80078 -0.3,-1.06667 -0.44922,-2.18295 -0.44922,-3.34961 0,-2.06667 0.58333,-4.21589 1.75,-6.44922 1.2,-2.23333 2.83372,-4.28372 4.90039,-6.15039 2.06667,-1.9 4.49883,-3.45039 7.29883,-4.65039 2.83333,-1.23334 5.88372,-1.84961 9.15039,-1.84961 1.93333,0 3.74922,0.30039 5.44922,0.90039 1.7,0.56667 3.25039,1.38255 4.65039,2.44922 1.4,-1.06667 2.8845,-1.98334 4.45117,-2.75 1.19609,-0.61077 2.45101,-1.06338 3.76367,-1.36328 z m -305.66406,0.75781 12.69531,0 0,35.61914 8.51953,0 0,3.78516 -13.06054,0 0,-35.5957 -8.1543,0 z m 92.28516,0 4.54101,0 0,24.75586 13.10938,-12.62305 6.05469,0 -13.08594,12.62305 13.42773,14.64844 -6.25,0 -13.25586,-14.64844 0,14.64844 -4.54101,0 z m -182.105472,1.51367 4.931641,0 0,16.30664 14.013672,0 0,-16.30664 4.908203,0 0,37.89063 -4.908203,0 0,-17.79883 -14.013672,0 0,17.79883 -4.931641,0 z m 61.083982,0 7.39844,0 c 4.44336,0 7.41276,0.3418 8.91016,1.0254 1.51367,0.66731 2.64583,1.66015 3.39453,2.97851 0.74869,1.31836 1.12304,2.82292 1.12304,4.51563 0,1.33463 -0.2207,2.60416 -0.66015,3.80859 -0.43946,1.18815 -1.0905,2.27864 -1.95313,3.27148 -0.86263,0.97656 -2.11588,1.9043 -3.75976,2.78321 3.01106,1.20442 5.04557,2.68554 6.10351,4.44336 1.07422,1.75781 1.61133,3.51562 1.61133,5.27343 0,1.67644 -0.45573,3.30404 -1.36719,4.88282 -0.89518,1.57877 -2.15559,2.79036 -3.7832,3.63671 -1.62761,0.84637 -4.23177,1.27149 -7.8125,1.27149 l -9.20508,0 z m 297.73633,1.78907 c 0.5,0 0.98255,0.0833 1.44922,0.25 0.46667,0.13333 0.70117,0.36784 0.70117,0.70117 0,0.26667 -0.10078,0.43333 -0.30078,0.5 -0.2,0.0667 -0.43255,0.0996 -0.69922,0.0996 -0.46667,0 -0.96667,-0.0504 -1.5,-0.15039 -0.5,-0.13334 -1,-0.19922 -1.5,-0.19922 -0.76667,0 -1.55156,0.33333 -2.35156,1 -0.76667,0.66667 -1.54961,1.53294 -2.34961,2.59961 -0.76667,1.06666 -1.51667,2.26627 -2.25,3.59961 -0.73333,1.3 -1.4155,2.60039 -2.04883,3.90039 -0.6,1.26666 -1.13489,2.45078 -1.60156,3.55078 -0.43333,1.1 -0.78216,1.96628 -1.04883,2.59961 -0.53333,1.43333 -1.14961,2.96627 -1.84961,4.59961 -0.7,1.6 -1.56823,3.18333 -2.60156,4.75 -1.03333,1.53333 -2.29883,2.98294 -3.79883,4.34961 -1.46667,1.36666 -3.26706,2.51784 -5.40039,3.45117 l 0,0.0996 c 5.06667,0 9.34961,-1.10078 12.84961,-3.30078 3.53333,-2.2 6.31628,-5.48295 8.34961,-9.84961 l 0.40039,0.0996 c -1.03333,2.3 -2.28333,4.3 -3.75,6 -1.46667,1.7 -3.10039,3.10117 -4.90039,4.20117 -1.8,1.1 -3.74961,1.91588 -5.84961,2.44922 -2.1,0.53333 -4.28216,0.80078 -6.54883,0.80078 -0.7,0 -1.28333,0.0155 -1.75,0.0488 -0.46667,0.0667 -0.85039,0.11705 -1.15039,0.15039 -0.3,0.0667 -0.55,0.11706 -0.75,0.15039 -0.2,0.0333 -0.39961,0.0488 -0.59961,0.0488 -0.3,0 -0.55,-0.0484 -0.75,-0.14844 -0.2,-0.0667 -0.30078,-0.20039 -0.30078,-0.40039 0,-0.26667 0.13372,-0.41784 0.40039,-0.45117 0.3,-0.0667 0.53255,-0.0996 0.69922,-0.0996 0.46667,0 0.91628,0.0329 1.34961,0.0996 0.43333,0.0667 0.88489,0.1345 1.35156,0.20117 2,-0.96667 3.69961,-2.35039 5.09961,-4.15039 1.4,-1.83334 2.65,-3.86628 3.75,-6.09961 1.1,-2.26667 2.1155,-4.63294 3.04883,-7.09961 0.96667,-2.46667 2.01706,-4.8 3.15039,-7 1.16667,-2.23333 2.5,-4.23333 4,-6 1.5,-1.8 3.33333,-3.15078 5.5,-4.05078 l -0.0996,-0.0996 c -1.43333,0.23333 -2.96628,0.86706 -4.59961,1.90039 -1.63333,1.03333 -3.2845,2.33177 -4.95117,3.89844 -1.63333,1.53333 -3.26511,3.26784 -4.89844,5.20117 -1.6,1.9 -3.13489,3.86706 -4.60156,5.90039 -1.13333,1.6 -2.3,3.23177 -3.5,4.89844 -1.16667,1.66666 -2.38177,3.30039 -3.64844,4.90039 -1.26667,1.56666 -2.61745,3.08411 -4.05078,4.55078 -1.43333,1.46667 -2.99922,2.81549 -4.69922,4.04883 l -0.35156,-0.5 c 1.16667,-1.83334 2.10078,-3.79844 2.80078,-5.89844 0.73333,-2.1 1.4,-4.23372 2,-6.40039 0.63333,-2.16667 1.26706,-4.31784 1.90039,-6.45117 0.63333,-2.13334 1.43372,-4.16628 2.40039,-6.09961 1,-1.93334 2.23255,-3.71628 3.69922,-5.34961 1.46667,-1.63334 3.31745,-3.01706 5.55078,-4.15039 l -0.10156,-0.0996 c -2.2,0.73333 -4.2155,1.79922 -6.04883,3.19922 -1.83333,1.36666 -3.53294,2.9345 -5.09961,4.70117 -1.56667,1.73333 -3.01823,3.61706 -4.35156,5.65039 -1.33333,2 -2.61628,4 -3.84961,6 -1.23333,2 -2.4155,3.93216 -3.54883,5.79883 -1.13333,1.86666 -2.3,3.51784 -3.5,4.95117 -1.2,1.4 -2.48489,2.53177 -3.85156,3.39844 -1.36667,0.83333 -2.89961,1.25 -4.59961,1.25 -0.43333,0 -0.8655,-0.0329 -1.29883,-0.0996 -0.4,-0.0667 -0.78372,-0.20039 -1.15039,-0.40039 -0.33333,-0.2 -0.61628,-0.4655 -0.84961,-0.79883 -0.2,-0.33333 -0.30078,-0.76745 -0.30078,-1.30078 0,-0.5 0.16667,-0.91667 0.5,-1.25 0.33333,-0.33334 0.75,-0.5 1.25,-0.5 0.43333,0 0.78411,0.16666 1.05078,0.5 0.26667,0.33333 0.39844,0.71705 0.39844,1.15039 0,0.26666 -0.0659,0.54961 -0.19922,0.84961 -0.1,0.3 -0.28411,0.48411 -0.55078,0.55078 0.0333,0.2 0.23489,0.36667 0.60156,0.5 0.36667,0.13333 0.7155,0.19922 1.04883,0.19922 1.46667,0 2.83294,-0.44961 4.09961,-1.34961 1.26667,-0.93334 2.50117,-2.15039 3.70117,-3.65039 1.23333,-1.53334 2.45039,-3.26589 3.65039,-5.19922 1.2,-1.96667 2.45,-3.99961 3.75,-6.09961 1.53333,-2.43333 3.06628,-4.71823 4.59961,-6.85156 1.53333,-2.13334 3.18255,-4.03256 4.94922,-5.69922 1.76667,-1.7 3.70078,-3.13412 5.80078,-4.30078 2.13333,-1.16667 4.55,-2.0155 7.25,-2.54883 l 0.0488,0.44922 c -2.06667,0.63333 -3.78177,1.65078 -5.14844,3.05078 -1.36667,1.36667 -2.55078,2.98294 -3.55078,4.84961 -0.96667,1.86666 -1.81745,3.89961 -2.55078,6.09961 -0.7,2.2 -1.43255,4.4345 -2.19922,6.70117 -0.73333,2.23333 -1.54922,4.43294 -2.44922,6.59961 -0.9,2.16667 -2.03372,4.16667 -3.40039,6 l 0.0996,0.0996 c 1.23333,-1.06667 2.46589,-2.31667 3.69922,-3.75 1.26667,-1.46667 2.50117,-2.98412 3.70117,-4.55078 1.2,-1.6 2.34922,-3.18334 3.44922,-4.75 1.13333,-1.6 2.18372,-3.06511 3.15039,-4.39844 2.6,-3.56667 4.98372,-6.4349 7.15039,-8.60156 2.16667,-2.16667 4.16667,-3.83334 6,-5 1.83333,-1.2 3.5,-1.99844 5,-2.39844 1.53333,-0.4 2.95,-0.60156 4.25,-0.60156 z m -292.80469,2.01757 0,13.25782 5.17578,0 c 1.67644,-0.69987 2.89714,-1.43229 3.66211,-2.19727 0.78125,-0.78124 1.36003,-1.64388 1.73438,-2.58789 0.39063,-0.96029 0.58594,-2.00912 0.58594,-3.14844 0,-1.79036 -0.52995,-3.12695 -1.58789,-4.00586 -1.04167,-0.8789 -3.08334,-1.31836 -6.12696,-1.31836 z m 321.35352,2.78321 c -1.36667,1.53333 -2.63216,3.26588 -3.79883,5.19922 -1.13333,1.93333 -2.26706,3.93333 -3.40039,6 -1.13333,2.06666 -2.3,4.11705 -3.5,6.15039 -1.2,2.03333 -2.50039,3.9345 -3.90039,5.70117 -1.4,1.76667 -2.96589,3.35 -4.69922,4.75 -1.7,1.36667 -3.64961,2.39961 -5.84961,3.09961 l 0,0.0996 c 1.03333,0.2 2.06628,0.33372 3.09961,0.40039 1.06667,0.0667 2.26628,0.0996 3.59961,0.0996 2.33333,0 4.46706,-0.35078 6.40039,-1.05078 1.93333,-0.7 3.66589,-1.63216 5.19922,-2.79883 1.56667,-1.2 2.91745,-2.60117 4.05078,-4.20117 1.13333,-1.6 2.08294,-3.28216 2.84961,-5.04883 0.76667,-1.8 1.33255,-3.63333 1.69922,-5.5 0.4,-1.9 0.60156,-3.73333 0.60156,-5.5 0,-1.33333 -0.18411,-2.66667 -0.55078,-4 -0.36667,-1.36667 -0.96745,-2.50039 -1.80078,-3.40039 z m -255.41016,3.27344 c 3.88998,0 7.00586,1.35807 9.34961,4.07617 2.34375,2.7181 3.51563,6.15235 3.51563,10.30273 0,4.1504 -1.17188,7.5918 -3.51563,10.32617 -2.34375,2.7181 -5.45963,4.07813 -9.34961,4.07813 -3.90624,0 -7.03124,-1.36003 -9.375,-4.07813 -2.34374,-2.73437 -3.51562,-6.17577 -3.51562,-10.32617 0,-4.15038 1.17188,-7.58463 3.51562,-10.30273 2.34376,-2.7181 5.46876,-4.07617 9.375,-4.07617 z m 32.86133,0 c 2.81575,0 5.79427,0.52799 8.93555,1.58593 l 0,4.36914 c -3.17384,-1.44856 -6.01498,-2.17187 -8.52149,-2.17187 -1.66016,0 -3.22266,0.41601 -4.6875,1.24609 -1.46484,0.8138 -2.59505,2.09049 -3.39258,3.83203 -0.79752,1.74154 -1.19726,3.5319 -1.19726,5.3711 0,2.45768 0.76497,4.80143 2.29492,7.03125 1.54622,2.22982 3.96419,3.3457 7.25195,3.3457 0.99284,0 1.96941,-0.067 2.92969,-0.19726 0.96029,-0.14649 2.73437,-0.65821 5.32227,-1.53711 l 0,4.37109 c -3.04362,1.02539 -5.94076,1.53711 -8.69141,1.53711 -2.73437,0 -5.16862,-0.62565 -7.30078,-1.87891 -2.11589,-1.26953 -3.76692,-2.97852 -4.95508,-5.12695 -1.18815,-2.16471 -1.7832,-4.62239 -1.7832,-7.37305 0,-4.13411 1.34375,-7.57031 4.0293,-10.30468 2.70182,-2.73438 5.95703,-4.09961 9.76562,-4.09961 z m 58.25195,0 c 2.91342,0 5.67123,0.42122 8.27539,1.26757 l 0,4.12696 c -2.99479,-1.07422 -5.81054,-1.61133 -8.44726,-1.61133 -1.92057,0 -3.42513,0.3418 -4.51563,1.02539 -1.07422,0.66732 -1.61132,1.50651 -1.61132,2.51562 0,0.97656 0.472,1.75781 1.41601,2.34375 0.92773,0.58594 2.4414,1.26042 4.54102,2.02539 l 3.07617,1.12305 c 2.81575,1.0254 4.79232,2.14128 5.93164,3.34571 1.13933,1.20442 1.70898,2.70898 1.70898,4.51562 0,2.36003 -0.91145,4.30404 -2.73437,5.83398 -1.80664,1.51368 -4.70378,2.27149 -8.69141,2.27149 -3.48307,0 -7.0638,-0.73243 -10.74219,-2.19727 l 0,-4.80859 c 1.82292,1.18815 3.75261,2.02539 5.78711,2.51367 2.03451,0.47201 3.75977,0.70899 5.17579,0.70899 2.29492,0 3.94596,-0.36719 4.95507,-1.09961 1.00912,-0.7487 1.51368,-1.67644 1.51368,-2.78321 0,-0.73242 -0.23503,-1.36002 -0.70704,-1.88086 -0.472,-0.52083 -1.64387,-1.16276 -3.51562,-1.92773 l -1.5625,-0.63477 -3.15039,-1.24414 c -3.38541,-1.31836 -5.51758,-2.53906 -6.39649,-3.66211 -0.89518,-1.10677 -1.34179,-2.45768 -1.34179,-4.05273 0,-2.24609 0.86263,-4.0944 2.58789,-5.54297 1.74153,-1.44857 4.55729,-2.17187 8.44726,-2.17187 z m -192.310543,0.75585 12.109375,0 0,23.48633 7.59375,0 0,3.78516 -12.134766,0 0,-23.48633 -7.568359,0 z m 101.197263,3.02735 c -2.4414,0 -4.37825,0.94401 -5.81054,2.83203 -1.43229,1.88802 -2.14844,4.47591 -2.14844,7.76367 0,3.30404 0.71615,5.90104 2.14844,7.78906 1.43229,1.88802 3.36914,2.83204 5.81054,2.83204 2.42514,0 4.35287,-0.94402 5.78516,-2.83204 1.43229,-1.88802 2.14844,-4.48502 2.14844,-7.78906 0,-3.28776 -0.71615,-5.87565 -2.14844,-7.76367 -1.43229,-1.88802 -3.36002,-2.83203 -5.78516,-2.83203 z m -65.94336,7.20312 0,13.25586 4.66407,0 c 2.60416,0 4.52473,-0.60937 5.76171,-1.83007 1.25326,-1.23698 1.87891,-2.7181 1.87891,-4.44336 0,-1.26953 -0.3418,-2.43425 -1.02539,-3.49219 -0.6836,-1.07422 -1.74154,-1.92058 -3.17383,-2.53906 -1.43229,-0.63477 -3.67839,-0.95118 -6.73828,-0.95118 z m -4.92968,46.12305 355.98046,0 0,49.24219 -355.98046,0 z"
       transform="translate(98.571426,654.203)"
       id="rect8127"
       inkscape:connector-curvature="0"
       sodipodi:nodetypes="ccccccccccccccssssscsssccccccccccccssscccccsccccccsccccccscccccsccscccscccccccscscsccccccsccccsccsscscscccsccscccscccscccsccccccccccccccccccccccccccccccccccccccccscssccccscssccccssscsccccccccccccccssssccsscscscccccccccscccccsccccscscccccssccscccscscsccssccccsccccccccsccccccsccscccscscsccssssccccsscsccsccssccscssssccscsscscccsccscssccscscccsscscccscssccccscsccsccccccsscssssssccccsccscccccccc" />
    <text
       sodipodi:linespacing="125%"
       id="text8231"
       y="791.60693"
       x="-74.095581"
       style="font-style:normal;font-variant:normal;font-weight:500;font-stretch:normal;font-size:50px;line-height:125%;font-family:'Lucida Grande';-inkscape-font-specification:'Lucida Grande, Medium';text-align:start;letter-spacing:0px;word-spacing:0px;writing-mode:lr-tb;text-anchor:start;fill:#6f359e;fill-opacity:1;stroke:none;stroke-width:1px;stroke-linecap:butt;stroke-linejoin:miter;stroke-opacity:1"
       xml:space="preserve"><tspan
         y="791.60693"
         x="-74.095581"
         id="tspan8233"
         sodipodi:role="line"><tspan
           id="tspan8235"
           style="font-style:normal;font-variant:normal;font-weight:normal;font-stretch:normal;font-family:Monaco;-inkscape-font-specification:Monaco;fill:#6f359e;fill-opacity:1"><tspan
   id="tspan8237"
   style="font-style:normal;font-variant:normal;font-weight:normal;font-stretch:normal;font-family:'Times New Roman';-inkscape-font-specification:'Times New Roman, ';fill:#000000;fill-opacity:1">Performed with </tspan>[HiBlocks](</tspan><tspan
           id="tspan8239"
           style="font-style:normal;font-variant:normal;font-weight:500;font-stretch:normal;font-size:50px;line-height:125%;font-family:'Snell Roundhand';-inkscape-font-specification:'Snell Roundhand, Medium';text-align:start;writing-mode:lr-tb;text-anchor:start;fill:#6f359e;fill-opacity:1">MD</tspan><tspan
           id="tspan8241"
           style="font-style:normal;font-variant:normal;font-weight:normal;font-stretch:normal;font-family:Monaco;-inkscape-font-specification:Monaco;fill:#6f359e;fill-opacity:1">)</tspan></tspan></text>
    <text
       xml:space="preserve"
       style="font-style:normal;font-variant:normal;font-weight:normal;font-stretch:normal;font-size:26.98573303px;line-height:125%;font-family:Arial;-inkscape-font-specification:'Arial, Normal';text-align:start;letter-spacing:0px;word-spacing:0px;writing-mode:lr-tb;text-anchor:start;fill:#6f359e;fill-opacity:1;stroke:none;stroke-width:1px;stroke-linecap:butt;stroke-linejoin:miter;stroke-opacity:1"
       x="96.47393"
       y="1112.3357"
       id="text8252"
       sodipodi:linespacing="125%"><tspan
         sodipodi:role="line"
         id="tspan8254"
         x="96.47393"
         y="1112.3357">Hierarchical Block Structure - MarkDown</tspan></text>
    <g
       id="g8217"
       transform="translate(-336.29549,84.271035)">
      <rect
         y="103.44598"
         x="98.571426"
         height="89.242996"
         width="301.37701"
         id="rect8094"
         style="opacity:1;fill:#6f359e;fill-opacity:1;stroke:none;stroke-width:10;stroke-linejoin:round;stroke-miterlimit:4;stroke-dasharray:none;stroke-dashoffset:0;stroke-opacity:1" />
      <text
         sodipodi:linespacing="125%"
         id="text8096"
         y="163.60693"
         x="109.90443"
         style="font-style:normal;font-variant:normal;font-weight:500;font-stretch:normal;font-size:50px;line-height:125%;font-family:'Lucida Grande';-inkscape-font-specification:'Lucida Grande, Medium';text-align:start;letter-spacing:0px;word-spacing:0px;writing-mode:lr-tb;text-anchor:start;fill:#ffffff;fill-opacity:1;stroke:none;stroke-width:1px;stroke-linecap:butt;stroke-linejoin:miter;stroke-opacity:1"
         xml:space="preserve"><tspan
           y="163.60693"
           x="109.90443"
           id="tspan8098"
           sodipodi:role="line"><tspan
             id="tspan8100"
             style="font-style:normal;font-variant:normal;font-weight:normal;font-stretch:normal;font-family:Monaco;-inkscape-font-specification:Monaco;fill:#ffffff;fill-opacity:1">[HB](</tspan><tspan
             id="tspan8102"
             style="font-style:normal;font-variant:normal;font-weight:500;font-stretch:normal;font-size:50px;line-height:125%;font-family:'Snell Roundhand';-inkscape-font-specification:'Snell Roundhand, Medium';text-align:start;writing-mode:lr-tb;text-anchor:start;fill:#ffffff;fill-opacity:1">MD</tspan><tspan
             id="tspan8104"
             style="font-style:normal;font-variant:normal;font-weight:normal;font-stretch:normal;font-family:Monaco;-inkscape-font-specification:Monaco;fill:#ffffff;fill-opacity:1">)</tspan></tspan></text>
    </g>
    <g
       id="g8211"
       transform="translate(-259.04948,-54.214962)">
      <rect
         style="opacity:1;fill:#6f359e;fill-opacity:1;stroke:none;stroke-width:10;stroke-linejoin:round;stroke-miterlimit:4;stroke-dasharray:none;stroke-dashoffset:0;stroke-opacity:1"
         id="rect8106"
         width="146.88499"
         height="89.242996"
         x="98.571426"
         y="-16.554024" />
      <text
         xml:space="preserve"
         style="font-style:normal;font-variant:normal;font-weight:500;font-stretch:normal;font-size:50px;line-height:125%;font-family:'Lucida Grande';-inkscape-font-specification:'Lucida Grande, Medium';text-align:start;letter-spacing:0px;word-spacing:0px;writing-mode:lr-tb;text-anchor:start;fill:#ffffff;fill-opacity:1;stroke:none;stroke-width:1px;stroke-linecap:butt;stroke-linejoin:miter;stroke-opacity:1"
         x="109.90443"
         y="43.606934"
         id="text8108"
         sodipodi:linespacing="125%"><tspan
           sodipodi:role="line"
           id="tspan8110"
           x="109.90443"
           y="43.606934"><tspan
             style="font-style:normal;font-variant:normal;font-weight:normal;font-stretch:normal;font-family:Monaco;-inkscape-font-specification:Monaco;fill:#ffffff;fill-opacity:1"
             id="tspan8112">[]()</tspan></tspan></text>
    </g>
    <rect
       style="opacity:1;fill:#6f359e;fill-opacity:1;stroke:none;stroke-width:10;stroke-linejoin:round;stroke-miterlimit:4;stroke-dasharray:none;stroke-dashoffset:0;stroke-opacity:1"
       id="rect8118"
       width="146.88499"
       height="158.48599"
       x="-742.06281"
       y="-70.76899" />
    <text
       xml:space="preserve"
       style="font-style:normal;font-variant:normal;font-weight:500;font-stretch:normal;font-size:50px;line-height:125%;font-family:'Lucida Grande';-inkscape-font-specification:'Lucida Grande, Medium';text-align:start;letter-spacing:0px;word-spacing:0px;writing-mode:lr-tb;text-anchor:start;fill:#ffffff;fill-opacity:1;stroke:none;stroke-width:1px;stroke-linecap:butt;stroke-linejoin:miter;stroke-opacity:1"
       x="-730.7298"
       y="-10.608036"
       id="text8120"
       sodipodi:linespacing="125%"><tspan
         sodipodi:role="line"
         id="tspan8122"
         x="-730.7298"
         y="-10.608036"><tspan
           style="font-style:normal;font-variant:normal;font-weight:normal;font-stretch:normal;font-family:Monaco;-inkscape-font-specification:Monaco;fill:#ffffff;fill-opacity:1"
           id="tspan8124">[]()</tspan></tspan></text>
    <rect
       y="446.203"
       x="-909.42859"
       height="158.48599"
       width="481.55301"
       id="rect8128"
       style="opacity:1;fill:#6f359e;fill-opacity:1;stroke:none;stroke-width:10;stroke-linejoin:round;stroke-miterlimit:4;stroke-dasharray:none;stroke-dashoffset:0;stroke-opacity:1" />
    <text
       sodipodi:linespacing="125%"
       id="text8130"
       y="506.36414"
       x="-898.09558"
       style="font-style:normal;font-variant:normal;font-weight:500;font-stretch:normal;font-size:50px;line-height:125%;font-family:'Lucida Grande';-inkscape-font-specification:'Lucida Grande, Medium';text-align:start;letter-spacing:0px;word-spacing:0px;writing-mode:lr-tb;text-anchor:start;fill:#ffffff;fill-opacity:1;stroke:none;stroke-width:1px;stroke-linecap:butt;stroke-linejoin:miter;stroke-opacity:1"
       xml:space="preserve"><tspan
         y="506.36414"
         x="-898.09558"
         id="tspan8132"
         sodipodi:role="line"><tspan
           id="tspan8134"
           style="font-style:normal;font-variant:normal;font-weight:normal;font-stretch:normal;font-family:Monaco;-inkscape-font-specification:Monaco;fill:#ffffff;fill-opacity:1">[HiBlocks](</tspan><tspan
           id="tspan8136"
           style="font-style:normal;font-variant:normal;font-weight:500;font-stretch:normal;font-size:50px;line-height:125%;font-family:'Snell Roundhand';-inkscape-font-specification:'Snell Roundhand, Medium';text-align:start;writing-mode:lr-tb;text-anchor:start;fill:#ffffff;fill-opacity:1">MD</tspan><tspan
           id="tspan8138"
           style="font-style:normal;font-variant:normal;font-weight:normal;font-stretch:normal;font-family:Monaco;-inkscape-font-specification:Monaco;fill:#ffffff;fill-opacity:1">)</tspan></tspan></text>
    <rect
       y="187.71701"
       x="-819.30884"
       height="158.48599"
       width="301.37701"
       id="rect8166"
       style="opacity:1;fill:#6f359e;fill-opacity:1;stroke:none;stroke-width:10;stroke-linejoin:round;stroke-miterlimit:4;stroke-dasharray:none;stroke-dashoffset:0;stroke-opacity:1" />
    <text
       sodipodi:linespacing="125%"
       id="text8168"
       y="247.87814"
       x="-807.97583"
       style="font-style:normal;font-variant:normal;font-weight:500;font-stretch:normal;font-size:50px;line-height:125%;font-family:'Lucida Grande';-inkscape-font-specification:'Lucida Grande, Medium';text-align:start;letter-spacing:0px;word-spacing:0px;writing-mode:lr-tb;text-anchor:start;fill:#ffffff;fill-opacity:1;stroke:none;stroke-width:1px;stroke-linecap:butt;stroke-linejoin:miter;stroke-opacity:1"
       xml:space="preserve"><tspan
         y="247.87814"
         x="-807.97583"
         id="tspan8170"
         sodipodi:role="line"><tspan
           id="tspan8172"
           style="font-style:normal;font-variant:normal;font-weight:normal;font-stretch:normal;font-family:Monaco;-inkscape-font-specification:Monaco;fill:#ffffff;fill-opacity:1">[HB](</tspan><tspan
           id="tspan8174"
           style="font-style:normal;font-variant:normal;font-weight:500;font-stretch:normal;font-size:50px;line-height:125%;font-family:'Snell Roundhand';-inkscape-font-specification:'Snell Roundhand, Medium';text-align:start;writing-mode:lr-tb;text-anchor:start;fill:#ffffff;fill-opacity:1">MD</tspan><tspan
           id="tspan8176"
           style="font-style:normal;font-variant:normal;font-weight:normal;font-stretch:normal;font-family:Monaco;-inkscape-font-specification:Monaco;fill:#ffffff;fill-opacity:1">)</tspan></tspan></text>
    <rect
       style="opacity:1;fill:#ffffff;fill-opacity:1;stroke:none;stroke-width:10;stroke-linejoin:round;stroke-miterlimit:4;stroke-dasharray:none;stroke-dashoffset:0;stroke-opacity:1"
       id="rect8182"
       width="205.78799"
       height="49.243"
       x="-743.71954"
       y="276.96017" />
    <rect
       y="535.44617"
       x="-803.86218"
       height="49.243"
       width="355.987"
       id="rect8253"
       style="opacity:1;fill:#ffffff;fill-opacity:1;stroke:none;stroke-width:10;stroke-linejoin:round;stroke-miterlimit:4;stroke-dasharray:none;stroke-dashoffset:0;stroke-opacity:1" />
    <text
       sodipodi:linespacing="125%"
       id="text8255"
       y="247.87807"
       x="335.16187"
       style="font-style:normal;font-variant:normal;font-weight:500;font-stretch:normal;font-size:50px;line-height:125%;font-family:'Lucida Grande';-inkscape-font-specification:'Lucida Grande, Medium';text-align:start;letter-spacing:0px;word-spacing:0px;writing-mode:lr-tb;text-anchor:start;fill:#6f359e;fill-opacity:1;stroke:none;stroke-width:1px;stroke-linecap:butt;stroke-linejoin:miter;stroke-opacity:1"
       xml:space="preserve"><tspan
         id="tspan8257"
         y="247.87807"
         x="335.16187"
         sodipodi:role="line"><tspan
           id="tspan8259"
           style="font-style:normal;font-variant:normal;font-weight:normal;font-stretch:normal;font-family:Monaco;-inkscape-font-specification:Monaco;fill:#6f359e;fill-opacity:1">[HB](</tspan><tspan
           id="tspan8261"
           style="font-style:normal;font-variant:normal;font-weight:500;font-stretch:normal;font-size:50px;line-height:125%;font-family:'Snell Roundhand';-inkscape-font-specification:'Snell Roundhand, Medium';text-align:start;writing-mode:lr-tb;text-anchor:start;fill:#6f359e;fill-opacity:1">MD</tspan><tspan
           id="tspan8263"
           style="font-style:normal;font-variant:normal;font-weight:normal;font-stretch:normal;font-family:Monaco;-inkscape-font-specification:Monaco;fill:#6f359e;fill-opacity:1">)</tspan></tspan></text>
    <text
       xml:space="preserve"
       style="font-style:normal;font-variant:normal;font-weight:500;font-stretch:normal;font-size:50px;line-height:125%;font-family:'Lucida Grande';-inkscape-font-specification:'Lucida Grande, Medium';text-align:start;letter-spacing:0px;word-spacing:0px;writing-mode:lr-tb;text-anchor:start;fill:#6f359e;fill-opacity:1;stroke:none;stroke-width:1px;stroke-linecap:butt;stroke-linejoin:miter;stroke-opacity:1"
       x="412.40796"
       y="-10.607937"
       id="text8265"
       sodipodi:linespacing="125%"><tspan
         sodipodi:role="line"
         x="412.40796"
         y="-10.607937"
         id="tspan8267"><tspan
           style="font-style:normal;font-variant:normal;font-weight:normal;font-stretch:normal;font-family:Monaco;-inkscape-font-specification:Monaco;fill:#6f359e;fill-opacity:1"
           id="tspan8269">[]()</tspan></tspan></text>
    <text
       sodipodi:linespacing="125%"
       id="text8299"
       y="506.36404"
       x="845.07397"
       style="font-style:normal;font-variant:normal;font-weight:500;font-stretch:normal;font-size:50px;line-height:125%;font-family:'Lucida Grande';-inkscape-font-specification:'Lucida Grande, Medium';text-align:start;letter-spacing:0px;word-spacing:0px;writing-mode:lr-tb;text-anchor:start;fill:#6f359e;fill-opacity:1;stroke:none;stroke-width:1px;stroke-linecap:butt;stroke-linejoin:miter;stroke-opacity:1"
       xml:space="preserve"><tspan
         id="tspan8301"
         y="506.36404"
         x="845.07397"
         sodipodi:role="line"><tspan
           id="tspan8303"
           style="font-style:normal;font-variant:normal;font-weight:normal;font-stretch:normal;font-family:Monaco;-inkscape-font-specification:Monaco;fill:#6f359e;fill-opacity:1">[HiBlocks](</tspan><tspan
           id="tspan8305"
           style="font-style:normal;font-variant:normal;font-weight:500;font-stretch:normal;font-size:50px;line-height:125%;font-family:'Snell Roundhand';-inkscape-font-specification:'Snell Roundhand, Medium';text-align:start;writing-mode:lr-tb;text-anchor:start;fill:#6f359e;fill-opacity:1">MD</tspan><tspan
           id="tspan8307"
           style="font-style:normal;font-variant:normal;font-weight:normal;font-stretch:normal;font-family:Monaco;-inkscape-font-specification:Monaco;fill:#6f359e;fill-opacity:1">)</tspan></tspan></text>
    <text
       xml:space="preserve"
       style="font-style:normal;font-variant:normal;font-weight:500;font-stretch:normal;font-size:50px;line-height:125%;font-family:'Lucida Grande';-inkscape-font-specification:'Lucida Grande, Medium';text-align:start;letter-spacing:0px;word-spacing:0px;writing-mode:lr-tb;text-anchor:start;fill:#6f359e;fill-opacity:1;stroke:none;stroke-width:1px;stroke-linecap:butt;stroke-linejoin:miter;stroke-opacity:1"
       x="935.16187"
       y="247.87807"
       id="text8309"
       sodipodi:linespacing="125%"><tspan
         sodipodi:role="line"
         x="935.16187"
         y="247.87807"
         id="tspan8311"><tspan
           style="font-style:normal;font-variant:normal;font-weight:normal;font-stretch:normal;font-family:Monaco;-inkscape-font-specification:Monaco;fill:#6f359e;fill-opacity:1"
           id="tspan8313">[HB](</tspan><tspan
           style="font-style:normal;font-variant:normal;font-weight:500;font-stretch:normal;font-size:50px;line-height:125%;font-family:'Snell Roundhand';-inkscape-font-specification:'Snell Roundhand, Medium';text-align:start;writing-mode:lr-tb;text-anchor:start;fill:#6f359e;fill-opacity:1"
           id="tspan8315">MD</tspan><tspan
           style="font-style:normal;font-variant:normal;font-weight:normal;font-stretch:normal;font-family:Monaco;-inkscape-font-specification:Monaco;fill:#6f359e;fill-opacity:1"
           id="tspan8317">)</tspan></tspan></text>
    <text
       sodipodi:linespacing="125%"
       id="text8319"
       y="-10.607937"
       x="1012.408"
       style="font-style:normal;font-variant:normal;font-weight:500;font-stretch:normal;font-size:50px;line-height:125%;font-family:'Lucida Grande';-inkscape-font-specification:'Lucida Grande, Medium';text-align:start;letter-spacing:0px;word-spacing:0px;writing-mode:lr-tb;text-anchor:start;fill:#6f359e;fill-opacity:1;stroke:none;stroke-width:1px;stroke-linecap:butt;stroke-linejoin:miter;stroke-opacity:1"
       xml:space="preserve"><tspan
         id="tspan8321"
         y="-10.607937"
         x="1012.408"
         sodipodi:role="line"><tspan
           id="tspan8323"
           style="font-style:normal;font-variant:normal;font-weight:normal;font-stretch:normal;font-family:Monaco;-inkscape-font-specification:Monaco;fill:#6f359e;fill-opacity:1">[]()</tspan></tspan></text>
    <rect
       style="opacity:1;fill:#6f359e;fill-opacity:1;stroke:none;stroke-width:10;stroke-linejoin:round;stroke-miterlimit:4;stroke-dasharray:none;stroke-dashoffset:0;stroke-opacity:1"
       id="rect8325"
       width="106.885"
       height="49.243"
       x="1021.0747"
       y="18.473995" />
    <rect
       style="opacity:1;fill:#6f359e;fill-opacity:1;stroke:none;stroke-width:10;stroke-linejoin:round;stroke-miterlimit:4;stroke-dasharray:none;stroke-dashoffset:0;stroke-opacity:1"
       id="rect8327"
       width="205.78799"
       height="49.243"
       x="999.41785"
       y="276.96017" />
    <rect
       y="535.44617"
       x="939.3067"
       height="49.243"
       width="355.987"
       id="rect8329"
       style="opacity:1;fill:#6f359e;fill-opacity:1;stroke:none;stroke-width:10;stroke-linejoin:round;stroke-miterlimit:4;stroke-dasharray:none;stroke-dashoffset:0;stroke-opacity:1" />
    <rect
       style="opacity:0.93999999;fill:none;fill-opacity:1;stroke:#ffffff;stroke-width:0.99999994;stroke-linejoin:round;stroke-miterlimit:4;stroke-dasharray:none;stroke-dashoffset:0;stroke-opacity:1"
       id="rect8331"
       width="145.88499"
       height="157.48599"
       x="1001.5747"
       y="-70.268997" />
    <rect
       y="446.70319"
       x="834.24072"
       height="157.48599"
       width="480.55301"
       id="rect8333"
       style="opacity:0.93999999;fill:none;fill-opacity:1;stroke:#ffffff;stroke-width:1;stroke-linejoin:round;stroke-miterlimit:4;stroke-dasharray:none;stroke-dashoffset:0;stroke-opacity:1" />
    <rect
       y="188.21718"
       x="924.3288"
       height="157.48599"
       width="300.37701"
       id="rect8335"
       style="opacity:0.93999999;fill:none;fill-opacity:1;stroke:#ffffff;stroke-width:1;stroke-linejoin:round;stroke-miterlimit:4;stroke-dasharray:none;stroke-dashoffset:0;stroke-opacity:1" />
    <rect
       y="18.473995"
       x="-699.01587"
       height="49.243"
       width="83.837997"
       id="rect8146"
       style="opacity:1;fill:#ffffff;fill-opacity:1;stroke:none;stroke-width:10;stroke-linejoin:round;stroke-miterlimit:4;stroke-dasharray:none;stroke-dashoffset:0;stroke-opacity:1" />
  </g>
</svg>
